<?xml version="1.0" standalone="no"?>
<!DOCTYPE svg PUBLIC "-//W3C//DTD SVG 20010904//EN"
 "http://www.w3.org/TR/2001/REC-SVG-20010904/DTD/svg10.dtd">
<svg version="1.0" xmlns="http://www.w3.org/2000/svg"
 width="700.000000pt" height="700.000000pt" viewBox="0 0 700.000000 700.000000"
 preserveAspectRatio="xMidYMid meet">
<metadata>
Created by potrace 1.11, written by Peter Selinger 2001-2013
</metadata>
<g transform="translate(0.000000,700.000000) scale(0.100000,-0.100000)"
fill="#000000" stroke="none">
<path d="M3310 6994 c-397 -34 -613 -76 -910 -174 -849 -280 -1563 -882 -1987
-1675 -176 -329 -306 -712 -363 -1067 -35 -222 -44 -340 -44 -578 0 -402 52
-730 174 -1100 251 -762 767 -1423 1451 -1858 380 -241 853 -422 1291 -492
222 -35 340 -44 578 -44 402 0 730 52 1100 174 849 280 1563 882 1987 1675
176 329 306 712 363 1067 35 222 44 340 44 578 0 402 -52 730 -174 1100 -174
530 -474 1008 -876 1400 -567 552 -1257 881 -2049 975 -126 15 -494 27 -585
19z m642 -2099 c322 -48 509 -204 564 -470 22 -108 15 -306 -14 -395 -78 -236
-301 -429 -655 -564 -53 -21 -95 -42 -92 -47 4 -5 213 -293 466 -640 253 -346
467 -641 475 -655 l16 -24 -234 0 -235 0 -447 631 -447 631 3 121 3 121 108
22 c465 98 687 291 687 599 0 233 -116 357 -360 385 -47 5 -266 10 -487 10
l-403 0 0 -1260 0 -1260 -180 0 -180 0 0 1405 0 1405 658 0 c525 0 676 -3 754
-15z"/>
</g>
</svg>
