<svg width="343" height="92" viewBox="0 0 343 92" fill="none" xmlns="http://www.w3.org/2000/svg">
<path d="M2.23966 69.4069C1.47701 69.4069 1 69.027 1 68.2643V64.1683C1 63.4057 1.47701 63.0258 2.23966 63.0258H7.47822V28.9209H2.23966C1.47701 28.9209 1 28.541 1 27.7783V23.6823C1 22.9197 1.47701 22.5398 2.23966 22.5398H13.3795C14.1421 22.5398 14.6191 22.9197 14.6191 23.6823V35.5905H14.9047C14.9047 35.5905 18.0467 22.3484 35.2906 22.3484C35.4568 22.3336 35.6243 22.3554 35.7813 22.4122C35.9382 22.4691 36.0808 22.5597 36.1989 22.6776C36.3171 22.7955 36.408 22.9378 36.4652 23.0946C36.5225 23.2514 36.5447 23.4189 36.5302 23.5852V28.6352C36.5451 28.8018 36.5232 28.9695 36.4662 29.1267C36.4092 29.2838 36.3183 29.4266 36.2001 29.5448C36.0819 29.663 35.9392 29.7538 35.782 29.8109C35.6249 29.8679 35.4571 29.8898 35.2906 29.8749H33.2911C21.7657 29.8749 15.3818 38.8296 15.3818 47.013V63.0086H20.4347C21.1973 63.0086 21.6743 63.3914 21.6743 64.1512V68.2472C21.6743 69.0098 21.1973 69.3897 20.4347 69.3897L2.23966 69.4069Z" fill="#32393B" stroke="#32393B" stroke-miterlimit="10"/>
<path d="M47.6758 46.9245C48.1528 58.0643 55.9592 63.4057 63.4886 63.4057C71.6806 63.4057 77.3019 58.2642 78.6273 56.0705C79.1033 55.404 79.6746 55.3088 80.3411 55.7849L82.9118 58.3556C83.5802 58.9269 83.6745 59.4982 83.2946 60.0694C82.0549 62.166 75.5824 70.0667 63.0144 70.0667C50.1608 70.0667 39.5923 61.0177 39.5923 45.7876C39.5923 30.3633 50.6435 21.8771 62.0747 21.8771C75.6966 21.8771 83.603 30.926 83.3174 45.6934C83.3174 46.456 82.8404 46.933 81.9835 46.933L47.6758 46.9245ZM75.3824 41.1146C75.0025 33.4025 70.4295 28.1582 62.2432 28.1582C55.6736 28.1582 49.0011 31.9686 47.8586 41.1146H75.3824Z" fill="#32393B" stroke="#32393B" stroke-miterlimit="10"/>
<path d="M97.4021 63.2143H97.1993C97.1993 63.2143 97.3906 67.8816 97.3906 68.1672C97.3906 68.9299 96.8194 69.4069 96.0567 69.4069H92.829C92.6625 69.4218 92.4947 69.3999 92.3376 69.3429C92.1804 69.2858 92.0377 69.195 91.9195 69.0768C91.8013 68.9586 91.7104 68.8158 91.6534 68.6587C91.5964 68.5015 91.5745 68.3338 91.5894 68.1672V53.8854C91.5745 53.7189 91.5964 53.5512 91.6534 53.394C91.7104 53.2368 91.8013 53.0941 91.9195 52.9759C92.0377 52.8577 92.1804 52.7668 92.3376 52.7098C92.4947 52.6528 92.6625 52.6309 92.829 52.6458H96.5423C97.3049 52.6458 97.8762 53.1228 97.8762 53.8854V55.7906C97.8762 55.7906 100.544 63.8884 111.301 63.8884C118.065 63.8884 121.584 61.1263 121.584 56.4619C121.584 47.0359 92.9119 51.986 92.9119 35.4105C92.9119 26.9329 99.7671 21.8828 108.822 21.8828C115.963 21.8828 120.062 24.3593 122.349 27.407H122.541C122.541 27.407 122.349 23.9794 122.349 23.8823C122.335 23.7157 122.356 23.548 122.414 23.3908C122.471 23.2337 122.561 23.0909 122.68 22.9727C122.798 22.8545 122.941 22.7637 123.098 22.7066C123.255 22.6496 123.423 22.6277 123.589 22.6426H126.637C126.803 22.6277 126.971 22.6496 127.128 22.7066C127.285 22.7637 127.428 22.8545 127.546 22.9727C127.665 23.0909 127.755 23.2337 127.813 23.3908C127.87 23.548 127.891 23.7157 127.877 23.8823V37.1243C127.891 37.2909 127.87 37.4586 127.813 37.6158C127.755 37.7729 127.665 37.9157 127.546 38.0339C127.428 38.1521 127.285 38.2429 127.128 38.3C126.971 38.357 126.803 38.3789 126.637 38.364H122.924C122.161 38.364 121.59 37.887 121.59 37.1243V35.7904C121.59 33.1226 118.448 28.1697 109.779 28.1697C105.111 28.1697 100.73 30.7404 100.73 35.5962C100.73 46.2647 129.879 40.6462 129.879 56.6475C129.879 63.6028 125.023 70.0724 112.352 70.0724C102.544 70.0724 98.1618 64.8339 97.4021 63.2143Z" fill="#1BBC9B" stroke="#1BBC9B" stroke-miterlimit="10"/>
<path d="M136.331 90.841C135.569 90.841 135.092 90.4583 135.092 89.6985V85.5996C135.092 84.837 135.569 84.4571 136.331 84.4571H141.667V28.9209H136.526C135.763 28.9209 135.286 28.541 135.286 27.7784V23.6823C135.286 22.9197 135.763 22.5398 136.526 22.5398H147.665C148.428 22.5398 148.905 22.9197 148.905 23.6823L148.811 31.2089H148.899C150.996 26.7329 156.14 21.8743 164.712 21.8743C177.383 21.8743 186.135 31.2088 186.135 45.8677C186.135 59.9667 177.851 70.0639 164.798 70.0639C156.32 70.0639 151.27 65.2995 149.271 60.7293H148.985C148.985 60.7293 149.271 63.777 149.271 65.111V84.4485H155.469C156.232 84.4485 156.709 84.8284 156.709 85.591V89.6871C156.709 90.4497 156.232 90.8296 155.469 90.8296L136.331 90.841ZM178.32 46.0676C178.32 35.2135 171.936 28.541 163.65 28.541C156.409 28.541 149.082 34.1623 149.082 46.736C149.082 57.5016 156.323 63.4057 163.65 63.4057C172.036 63.4057 178.32 56.5476 178.32 46.0676Z" fill="#1BBC9B" stroke="#1BBC9B" stroke-miterlimit="10"/>
<path d="M192.453 69.4069C191.69 69.4069 191.213 69.027 191.213 68.2644V64.1684C191.213 63.4057 191.69 63.0258 192.453 63.0258H197.692V7.39253H192.453C191.69 7.39253 191.213 7.01263 191.213 6.24999V2.14254C191.213 1.3799 191.69 1 192.453 1H203.022C204.927 1 205.592 1.76265 205.592 3.3822V63.023H210.639C211.402 63.023 211.879 63.4057 211.879 64.1655V68.2615C211.879 69.0242 211.402 69.4041 210.639 69.4041L192.453 69.4069Z" fill="#1BBC9B" stroke="#1BBC9B" stroke-miterlimit="10"/>
<path d="M222.022 69.4068C221.259 69.4068 220.782 69.0269 220.782 68.2643V64.1683C220.782 63.4056 221.259 63.0257 222.022 63.0257H227.261V28.9208H222.022C221.259 28.9208 220.782 28.5409 220.782 27.7783V23.6823C220.782 22.9196 221.259 22.5397 222.022 22.5397H234.019C234.781 22.5397 235.161 22.9206 235.161 23.6823V63.0229H240.217C240.98 63.0229 241.457 63.4056 241.457 64.1654V68.2614C241.457 69.0241 240.98 69.404 240.217 69.404L222.022 69.4068ZM231.071 17.4897C230.375 17.5018 229.684 17.3753 229.037 17.1175C228.391 16.8598 227.802 16.4759 227.306 15.9884C226.809 15.5008 226.414 14.9192 226.145 14.2776C225.875 13.636 225.736 12.9471 225.735 12.2511C225.719 11.5402 225.845 10.8332 226.105 10.1716C226.366 9.51006 226.756 8.90726 227.253 8.39867C227.75 7.89008 228.344 7.48595 228.999 7.21004C229.655 6.93412 230.359 6.79199 231.07 6.79199C231.781 6.79199 232.485 6.93412 233.14 7.21004C233.795 7.48595 234.389 7.89008 234.886 8.39867C235.383 8.90726 235.773 9.51006 236.034 10.1716C236.295 10.8332 236.42 11.5402 236.404 12.2511C236.403 12.9468 236.264 13.6355 235.995 14.2769C235.725 14.9183 235.331 15.4998 234.835 15.9873C234.338 16.4749 233.75 16.8588 233.104 17.1167C232.458 17.3746 231.767 17.5014 231.071 17.4897Z" fill="#1BBC9B" stroke="#1BBC9B" stroke-miterlimit="10"/>
<path d="M290.161 58.3556C290.829 58.9269 290.829 59.4982 290.446 60.0694C289.304 62.166 282.734 70.0667 270.166 70.0667C257.312 70.0667 246.744 61.0177 246.744 45.7876C246.744 30.3633 257.884 21.8771 269.415 21.8771C278.084 21.8771 282.554 26.0673 284.553 28.9266H284.648L284.553 23.688C284.539 23.5215 284.56 23.3537 284.618 23.1966C284.675 23.0394 284.765 22.8967 284.884 22.7785C285.002 22.6602 285.145 22.5694 285.302 22.5124C285.459 22.4553 285.627 22.4335 285.793 22.4483H289.412C290.175 22.4483 290.555 22.9254 290.555 23.688V39.875C290.569 40.0285 290.549 40.1833 290.496 40.3283C290.444 40.4733 290.36 40.605 290.251 40.714C290.142 40.8231 290.01 40.9068 289.865 40.9592C289.72 41.0117 289.566 41.0316 289.412 41.0175H285.031C284.877 41.0316 284.722 41.0117 284.577 40.9592C284.432 40.9068 284.3 40.8231 284.191 40.714C284.082 40.605 283.999 40.4733 283.946 40.3283C283.894 40.1833 283.874 40.0285 283.888 39.875V38.2554C283.794 34.1594 278.649 28.5438 270.36 28.5438C263.219 28.5438 254.736 34.4508 254.736 45.8819C254.736 57.2188 262.734 63.4085 270.646 63.4085C278.838 63.4085 284.459 58.17 285.785 55.982C286.164 55.3165 286.833 55.2193 287.404 55.6964L290.161 58.3556Z" fill="#1BBC9B" stroke="#1BBC9B" stroke-miterlimit="10"/>
<path d="M306.159 46.9245C306.636 58.0643 314.442 63.4057 321.972 63.4057C330.164 63.4057 335.785 58.2642 337.11 56.0705C337.586 55.404 338.158 55.3088 338.824 55.7849L341.395 58.3556C342.063 58.9269 342.158 59.4982 341.778 60.0694C340.538 62.166 334.066 70.0667 321.498 70.0667C308.644 70.0667 298.075 61.0177 298.075 45.7876C298.075 30.3633 309.127 21.8771 320.558 21.8771C334.18 21.8771 342.086 30.926 341.801 45.6934C341.801 46.456 341.324 46.933 340.467 46.933L306.159 46.9245ZM333.866 41.1146C333.486 33.4025 328.913 28.1582 320.726 28.1582C314.157 28.1582 307.484 31.9686 306.342 41.1146H333.866Z" fill="#1BBC9B" stroke="#1BBC9B" stroke-miterlimit="10"/>
</svg>
