<svg width="512" height="512" viewBox="0 0 512 512" fill="none" xmlns="http://www.w3.org/2000/svg">
<path d="M432 144H373C370 144 366.28 142.06 363.38 139L337.44 98.06C337.03 97.4103 336.572 96.7919 336.07 96.21C327.11 85.76 315 80 302 80H210C197 80 184.89 85.76 175.93 96.21C175.428 96.7919 174.97 97.4103 174.56 98.06L148.62 139.06C146.4 141.48 143.28 144.06 140 144.06V136.06C140 131.817 138.314 127.747 135.314 124.746C132.313 121.746 128.243 120.06 124 120.06H100C95.7565 120.06 91.6869 121.746 88.6863 124.746C85.6857 127.747 84 131.817 84 136.06V144.06H80C67.2737 144.073 55.0724 149.135 46.0735 158.133C37.0746 167.132 32.0132 179.334 32 192.06V384C32.0132 396.726 37.0746 408.928 46.0735 417.927C55.0724 426.925 67.2737 431.987 80 432H432C444.726 431.987 456.928 426.925 465.927 417.927C474.925 408.928 479.987 396.726 480 384V192C479.987 179.274 474.925 167.072 465.927 158.073C456.928 149.075 444.726 144.013 432 144ZM316.84 346.3C303.767 356.99 288.106 364.045 271.438 366.753C254.769 369.461 237.681 367.727 221.895 361.726C206.11 355.725 192.186 345.668 181.527 332.57C170.867 319.472 163.849 303.795 161.18 287.12C157.764 288.279 154.056 288.25 150.659 287.037C147.262 285.824 144.374 283.498 142.464 280.438C140.555 277.377 139.735 273.761 140.139 270.176C140.544 266.592 142.147 263.249 144.69 260.69L164.69 240.69C167.69 237.692 171.758 236.007 176 236.007C180.242 236.007 184.31 237.692 187.31 240.69L207.31 260.69C209.546 262.928 211.069 265.778 211.686 268.881C212.302 271.983 211.985 275.199 210.775 278.122C209.565 281.045 207.515 283.543 204.885 285.301C202.255 287.059 199.163 287.999 196 288C195.331 287.992 194.663 287.945 194 287.86C196.677 298.288 201.939 307.873 209.299 315.73C216.659 323.587 225.881 329.463 236.112 332.814C246.343 336.166 257.254 336.885 267.836 334.906C278.419 332.927 288.332 328.313 296.66 321.49C298.288 320.152 300.164 319.149 302.18 318.538C304.197 317.927 306.314 317.72 308.411 317.93C310.508 318.139 312.542 318.761 314.398 319.759C316.254 320.757 317.894 322.112 319.225 323.745C320.555 325.379 321.55 327.26 322.152 329.279C322.755 331.298 322.952 333.416 322.733 335.512C322.514 337.608 321.884 339.639 320.878 341.491C319.871 343.342 318.509 344.976 316.87 346.3H316.84ZM367.31 283.3L347.31 303.3C344.31 306.298 340.242 307.983 336 307.983C331.758 307.983 327.69 306.298 324.69 303.3L304.69 283.3C302.351 280.954 300.798 277.94 300.245 274.674C299.692 271.407 300.166 268.05 301.603 265.065C303.04 262.079 305.367 259.614 308.265 258.008C311.163 256.402 314.487 255.736 317.78 256.1C315.107 245.654 309.838 236.053 302.462 228.188C295.086 220.323 285.843 214.448 275.59 211.111C265.337 207.773 254.407 207.079 243.814 209.095C233.222 211.111 223.31 215.77 215 222.64C213.393 224.062 211.517 225.146 209.482 225.828C207.448 226.51 205.297 226.775 203.158 226.609C201.018 226.443 198.935 225.848 197.03 224.86C195.125 223.872 193.439 222.511 192.071 220.858C190.703 219.205 189.682 217.293 189.067 215.237C188.453 213.182 188.259 211.023 188.495 208.891C188.732 206.758 189.396 204.695 190.446 202.824C191.497 200.953 192.913 199.313 194.61 198C207.663 187.206 223.34 180.058 240.049 177.281C256.758 174.505 273.904 176.198 289.746 182.19C305.589 188.182 319.565 198.259 330.254 211.398C340.944 224.536 347.966 240.27 350.61 257C354.028 255.782 357.758 255.762 361.189 256.943C364.619 258.124 367.547 260.435 369.491 263.499C371.435 266.563 372.28 270.196 371.887 273.803C371.495 277.41 369.888 280.776 367.33 283.35L367.31 283.3Z" fill="#363636"/>
</svg>
