<svg width="49" height="66" viewBox="0 0 49 66" fill="none" xmlns="http://www.w3.org/2000/svg">
<path d="M24.6807 3L45.8571 7.78992V22.916V38.042C41.5005 50.6687 36.818 56.1101 24.6807 63C13.3281 57.3281 8.3631 52.1703 3 38.042V22.916V7.78992L24.6807 3Z" fill="#E5E5E5"/>
<path d="M3 22.916V38.042C8.3631 52.1703 13.3281 57.3281 24.6807 63C36.818 56.1101 41.5005 50.6687 45.8571 38.042V22.916M3 22.916V7.78992L24.6807 3L45.8571 7.78992V22.916M3 22.916L24.6807 7.78992L45.8571 22.916" stroke="#32393D" stroke-opacity="0.5" stroke-width="5"/>
<path d="M16.5649 30.2391L12.5798 33.2522L14.0967 28.4173L10.0588 25.437H15.0317L16.6135 20.395L18.1953 25.437H22.916L19.1004 28.322L20.6471 33.2522L16.5649 30.2391Z" fill="#32393D" fill-opacity="0.5"/>
<path d="M24.3799 43.6004L20.3949 46.6134L21.9117 41.7786L17.8739 38.7983H22.8467L24.4285 33.7563L26.0103 38.7983H30.731L26.9154 41.6833L28.4621 46.6134L24.3799 43.6004Z" fill="#32393D" fill-opacity="0.5"/>
<path d="M32.4472 29.987L28.4622 33L29.979 28.1652L25.9412 25.1849H30.914L32.4958 20.1429L34.0776 25.1849H38.7983L34.9827 28.0699L36.5294 33L32.4472 29.987Z" fill="#32393D" fill-opacity="0.5"/>
</svg>
