<svg width="250" height="250" viewBox="0 0 250 250" fill="none" xmlns="http://www.w3.org/2000/svg">
<path d="M250 125C250 194.036 194.036 250 125 250C55.9644 250 0 194.036 0 125C0 55.9644 55.9644 0 125 0C194.036 0 250 55.9644 250 125Z" fill="#32393D"/>
<path d="M90.5078 175V74.4531H133.398C152.523 74.4531 162.086 82.4922 162.086 98.5703C162.086 111.648 152.734 121.328 134.031 127.609L168.555 175H151.398L119.406 129.789V121.281C138.625 118.234 148.234 110.852 148.234 99.1328C148.234 89.8516 142.891 85.2109 132.203 85.2109H103.516V175H90.5078Z" fill="#1BBC9B"/>
</svg>
