<svg width="500" height="500" viewBox="0 0 500 500" fill="none" xmlns="http://www.w3.org/2000/svg">
<path d="M500 250C500 388.071 388.071 500 250 500C111.929 500 0 388.071 0 250C0 111.929 111.929 0 250 0C388.071 0 500 111.929 500 250Z" fill="#32393D"/>
<path d="M32.0781 250V48.9062H117.859C156.109 48.9062 175.234 64.9844 175.234 97.1406C175.234 123.297 156.531 142.656 119.125 155.219L188.172 250H153.859L89.875 159.578V142.562C128.312 136.469 147.531 121.703 147.531 98.2656C147.531 79.7031 136.844 70.4219 115.469 70.4219H58.0938V250H32.0781Z" transform="translate(148.938 100)" fill="#1BBC9B"/>
</svg>
