<svg xmlns="http://www.w3.org/2000/svg" viewBox="0 0 1224 792"><defs><style>.cls-1{fill:#32393b;stroke:#32393b;}.cls-1,.cls-2{stroke-miterlimit:10;}.cls-2{fill:#1bbc9b;stroke:#1bbc9b;}</style></defs><title>RESPLICE</title><g id="Layer_4" data-name="Layer 4"><path class="cls-1" d="M21.55,460.49c-2.67,0-4.34-1.33-4.34-4V442.15c0-2.67,1.67-4,4.34-4H39.89V318.75H21.55c-2.67,0-4.34-1.33-4.34-4V300.41c0-2.67,1.67-4,4.34-4h39c2.67,0,4.34,1.33,4.34,4V342.1h1s11-46.36,71.37-46.36a4,4,0,0,1,4.34,4.33v17.68a4,4,0,0,1-4.34,4.34h-7c-40.35,0-62.7,31.35-62.7,60v56H85.25c2.67,0,4.34,1.34,4.34,4v14.34c0,2.67-1.67,4-4.34,4Z"/><path class="cls-1" d="M180.62,381.78c1.67,39,29,57.7,55.36,57.7,28.68,0,48.36-18,53-25.68q2.5-3.5,6-1l9,9c2.34,2,2.67,4,1.34,6-4.34,7.34-27,35-71,35-45,0-82-31.68-82-85,0-54,38.69-83.71,78.71-83.71,47.69,0,75.37,31.68,74.37,83.38,0,2.67-1.67,4.34-4.67,4.34Zm97-20.34c-1.33-27-17.34-45.36-46-45.36-23,0-46.36,13.34-50.36,45.36Z"/><path class="cls-2" d="M354.71,438.81H354s.67,16.34.67,17.34c0,2.67-2,4.34-4.67,4.34H338.7a4,4,0,0,1-4.34-4.34v-50a4,4,0,0,1,4.34-4.34h13c2.67,0,4.67,1.67,4.67,4.34v6.67s9.34,28.35,47,28.35c23.68,0,36-9.67,36-26,0-33-100.38-15.67-100.38-73.7,0-29.68,24-47.36,55.7-47.36,25,0,39.35,8.67,47.36,19.34h.67s-.67-12-.67-12.34a4,4,0,0,1,4.34-4.34h10.67a4,4,0,0,1,4.34,4.34v46.36a4,4,0,0,1-4.34,4.34h-13c-2.67,0-4.67-1.67-4.67-4.34v-4.67c0-9.34-11-26.68-41.35-26.68-16.34,0-31.68,9-31.68,26,0,37.35,102.05,17.68,102.05,73.7,0,24.35-17,47-61.36,47C372.71,462.82,357.37,444.48,354.71,438.81Z"/><path class="cls-2" d="M491,535.53c-2.67,0-4.34-1.34-4.34-4V517.18c0-2.67,1.67-4,4.34-4h18.68V318.75h-18c-2.67,0-4.34-1.33-4.34-4V300.41c0-2.67,1.67-4,4.34-4h39c2.67,0,4.34,1.33,4.34,4l-.33,26.35H535c7.34-15.67,25.35-32.68,55.36-32.68,44.36,0,75,32.68,75,84,0,49.36-29,84.71-74.7,84.71-29.68,0-47.36-16.68-54.36-32.68h-1s1,10.67,1,15.34v67.7H558c2.67,0,4.34,1.33,4.34,4v14.34c0,2.67-1.67,4-4.34,4ZM638,378.78c0-38-22.35-61.36-51.36-61.36-25.35,0-51,19.68-51,63.7,0,37.69,25.35,58.36,51,58.36C616,439.48,638,415.47,638,378.78Z"/><path class="cls-2" d="M687.48,460.49c-2.67,0-4.34-1.33-4.34-4V442.15c0-2.67,1.67-4,4.34-4h18.34V243.38H687.48c-2.67,0-4.34-1.33-4.34-4V225c0-2.67,1.67-4,4.34-4h37c6.67,0,9,2.67,9,8.34V438.14h17.67c2.67,0,4.34,1.34,4.34,4v14.34c0,2.67-1.67,4-4.34,4Z"/><path class="cls-2" d="M791,460.49c-2.67,0-4.34-1.33-4.34-4V442.15c0-2.67,1.67-4,4.34-4h18.34V318.75H791c-2.67,0-4.34-1.33-4.34-4V300.41c0-2.67,1.67-4,4.34-4h42q4,0,4,4V438.14H854.7c2.67,0,4.34,1.34,4.34,4v14.34c0,2.67-1.67,4-4.34,4Zm31.68-181.76A18.36,18.36,0,0,1,804,260.39a18.68,18.68,0,1,1,37.35,0A18.36,18.36,0,0,1,822.68,278.73Z"/><path class="cls-2" d="M1029.55,421.8c2.34,2,2.34,4,1,6-4,7.34-27,35-71,35-45,0-82-31.68-82-85,0-54,39-83.71,79.37-83.71,30.35,0,46,14.67,53,24.68h.33l-.33-18.34a4,4,0,0,1,4.34-4.34h12.67c2.67,0,4,1.67,4,4.34V357.1a3.68,3.68,0,0,1-4,4h-15.34a3.68,3.68,0,0,1-4-4v-5.67c-.33-14.34-18.34-34-47.36-34-25,0-54.7,20.68-54.7,60.7,0,39.69,28,61.36,55.7,61.36,28.68,0,48.36-18.34,53-26,1.33-2.33,3.67-2.67,5.67-1Z"/><path class="cls-2" d="M1085.56,381.78c1.67,39,29,57.7,55.36,57.7,28.68,0,48.36-18,53-25.68q2.5-3.5,6-1l9,9c2.34,2,2.67,4,1.34,6-4.34,7.34-27,35-71,35-45,0-82-31.68-82-85,0-54,38.69-83.71,78.71-83.71,47.69,0,75.37,31.68,74.37,83.38,0,2.67-1.67,4.34-4.67,4.34Zm97-20.34c-1.33-27-17.34-45.36-46-45.36-23,0-46.36,13.34-50.36,45.36Z"/></g></svg>