<?xml version="1.0" standalone="no"?>
<!DOCTYPE svg PUBLIC "-//W3C//DTD SVG 20010904//EN"
 "http://www.w3.org/TR/2001/REC-SVG-20010904/DTD/svg10.dtd">
<svg version="1.0" xmlns="http://www.w3.org/2000/svg"
 width="700.000000pt" height="700.000000pt" viewBox="0 0 700.000000 700.000000"
 preserveAspectRatio="xMidYMid meet">
<metadata>
Created by potrace 1.11, written by Peter Selinger 2001-2013
</metadata>
<g transform="translate(0.000000,700.000000) scale(0.100000,-0.100000)"
fill="#000000" stroke="none">
<path d="M2534 3508 l0 -1408 183 0 183 0 0 1252 c0 739 4 1254 9 1257 5 3
209 5 453 5 383 -1 452 -4 508 -19 190 -50 278 -167 278 -372 0 -306 -226
-499 -703 -597 l-100 -21 -1 -120 -1 -120 103 -145 c107 -151 257 -362 503
-710 79 -113 177 -250 216 -305 l71 -100 242 -3 242 -2 -86 117 c-47 65 -146
201 -220 303 -147 202 -284 391 -314 430 -154 205 -341 473 -334 479 5 4 43
20 84 35 312 117 542 299 630 499 71 160 75 400 9 566 -86 217 -265 335 -570
377 -30 4 -353 8 -719 8 l-665 1 -1 -1407z"/>
</g>
</svg>
